<?xml version="1.0" encoding="UTF-8"?>
<svg xmlns="http://www.w3.org/2000/svg" xmlns:xlink="http://www.w3.org/1999/xlink" width="37pt" height="37pt" viewBox="0 0 37 37" version="1.1">
<g id="surface1190">
<path style=" stroke:none;fill-rule:nonzero;fill:rgb(28.235294%,70.980392%,39.215686%);fill-opacity:1;" d="M 27.566406 20.320312 L 27.574219 20.320312 C 27.574219 20.320312 24.667969 24.582031 22.222656 27.75 C 20.109375 30.488281 19.496094 32.828125 19.316406 33.964844 C 19.246094 34.378906 18.910156 34.6875 18.5 34.6875 C 18.089844 34.6875 17.753906 34.378906 17.683594 33.964844 C 17.503906 32.828125 16.890625 30.488281 14.777344 27.75 C 14.453125 27.324219 14.121094 26.886719 13.789062 26.441406 L 21.769531 16.957031 L 28.1875 9.34375 C 28.898438 10.832031 29.292969 12.496094 29.292969 14.261719 C 29.292969 16.496094 28.652344 18.570312 27.566406 20.320312 Z M 27.566406 20.320312 "/>
<path style=" stroke:none;fill-rule:nonzero;fill:rgb(98.823529%,77.647059%,5.490196%);fill-opacity:1;" d="M 21.769531 16.957031 L 13.789062 26.441406 C 11.617188 23.527344 9.425781 20.320312 9.425781 20.320312 L 9.433594 20.320312 C 9.203125 19.949219 8.996094 19.570312 8.816406 19.179688 L 15.230469 11.5625 C 14.621094 12.292969 14.261719 13.234375 14.261719 14.261719 C 14.261719 16.605469 16.15625 18.5 18.5 18.5 C 19.816406 18.5 20.996094 17.898438 21.769531 16.957031 Z M 21.769531 16.957031 "/>
<path style=" stroke:none;fill-rule:nonzero;fill:rgb(17.254902%,52.156863%,92.156863%);fill-opacity:1;" d="M 21.890625 3.652344 L 15.285156 11.5 L 10.230469 7.089844 C 12.203125 4.640625 15.175781 3.082031 18.5 3.082031 C 19.6875 3.082031 20.828125 3.285156 21.890625 3.652344 Z M 21.890625 3.652344 "/>
<path style=" stroke:none;fill-rule:nonzero;fill:rgb(92.941176%,34.117647%,28.235294%);fill-opacity:1;" d="M 15.285156 11.5 L 15.230469 11.5625 L 8.816406 19.179688 C 8.109375 17.691406 7.707031 16.027344 7.707031 14.261719 C 7.707031 11.53125 8.65625 9.027344 10.230469 7.089844 Z M 15.285156 11.5 "/>
<path style=" stroke:none;fill-rule:nonzero;fill:rgb(33.72549%,58.431373%,96.470588%);fill-opacity:1;" d="M 21.769531 16.957031 C 22.378906 16.226562 22.738281 15.285156 22.738281 14.261719 C 22.738281 11.917969 20.84375 10.019531 18.5 10.019531 C 17.183594 10.019531 16.003906 10.621094 15.230469 11.5625 L 21.890625 3.652344 C 24.660156 4.59375 26.925781 6.667969 28.1875 9.34375 Z M 21.769531 16.957031 "/>
</g>
</svg>
